<svg xmlns="http://www.w3.org/2000/svg" width="243.233" height="105.375" viewBox="0 0 243.233 105.375"><g transform="translate(-3.127 0.44)"><path d="M52.9,38.189l1.734-.448,11.636,9.3L88.335,31.087l9.535,3.9,11.941-6.749,10.368,4.817,16.57-11.522,11.8-13.149L178.571,42.07l10.074-2.982,19.486,22.1,18.836,8.9,11.986,2.13,6.536-.477-1.936,1.5L154.93,71.98l-42.878,1.825-25.577.975-30.85.75L11.8,73.94,31.577,60.026Z" transform="translate(0.463 -2.062)" fill="#fdfcfc"/><path d="M386.9-469.6c-.928,1.123-26.407,28.659-27.124,29.381-.169.161-3-1.564-6.371-3.891l-6.034-4.212-3.122,3.169c-3,3.089-8.1,7.26-8.819,7.26a33.016,33.016,0,0,1-3.966-3.771l-3.586-3.811-1.055.923c-13.08,11.512-20.464,17.891-20.717,17.891-.169,0-3.5-2.888-7.384-6.418l-7.089-6.418-.844,1.284c-3.207,5.094-11.772,16.968-14.6,20.3-4.81,5.736-11.013,10.59-20.886,16.527-2.321,1.364-4.388,2.687-4.641,2.888l-1.006,1c-.517.5,11.98-5.934,15.985-8.1a26.072,26.072,0,0,1,5.7-2.206,10.93,10.93,0,0,0,5.949-2.848,29.285,29.285,0,0,1,2.911-2.527c2.363-1.845,2.4-1.965-1.308,3.329l-1.814,2.607-5.4,2.086c-2.954,1.2-5.106,2.126-4.768,2.166.338,0,3.587-.281,7.173-.642,4.895-.481,6.709-.8,7.215-1.284.38-.361,3.207-4.051,6.287-8.223l5.57-7.5-.3-3.129c-.169-1.725-.422-3.731-.591-4.453l-.253-1.324-2.49,1.925c-1.35,1.043-2.4,1.725-2.321,1.524s1.266-2.126,2.616-4.292c2.068-3.249,2.574-3.851,3.165-3.53a48.322,48.322,0,0,1,4.81,4.372c2.785,2.728,4.473,4.773,5.274,6.378.633,1.284,1.224,2.407,1.266,2.487s.506-.321,1.055-.883c2.7-2.848,5.949-5.054,7.764-5.335a8.039,8.039,0,0,1,2.11-.08c.549.562-8.776,10.309-14.051,14.762-4.895,4.132-7.789,9.127-5.612,6.137l9.747-3.49c5.316-1.926,9.916-3.45,10.211-3.329.422.16,5.612,3.249,16.118,9.747,1.392.842,1.308.722-6.414-9.426l-3.46-4.533,2.152-3.289c3.671-5.5,3.46-4.974,3.038-8.263l-.38-2.968-2.532,3.089a20.79,20.79,0,0,1-2.658,2.888c-.169-.16,2.279-4.372,4.641-8.1l.8-1.284-3.08.241-3.08.241.844-.923c.464-.481,1.941-1.8,3.291-2.888l2.447-2.046,6.878,6.779c6.92,6.819,13.966,13,17.257,15.123,3,1.925,8.65,4.493,16.456,7.461,4.135,1.564,7.637,2.848,7.806,2.848a41.01,41.01,0,0,0-4.262-2.407,157.854,157.854,0,0,1-18.734-11.432c-3.544-2.688-14.9-12.916-14.9-13.4a11.378,11.378,0,0,1,2.11-1.6,64.257,64.257,0,0,0,5.485-4.132l3.376-2.768,4.43,3.49c3.08,2.407,4.43,3.731,4.43,4.332,0,.481-.3,2.447-.633,4.453-.338,1.966-.633,3.77-.633,4.011a14.583,14.583,0,0,0,1.857-3.089,44.172,44.172,0,0,1,3.249-5.295c1.519-1.845,14.3-14.481,14.3-14.16,0,.12-2.152,2.848-4.81,6.057-4.726,5.776-4.81,5.9-7.553,12.555-1.561,3.69-2.911,7.06-3.038,7.421-.211.482,1.435-.04,5.949-2.006l6.245-2.728,2.4-6.378c1.35-3.53,2.532-6.779,2.658-7.22.126-.4.3-.682.422-.562a69.075,69.075,0,0,1-1.224,8.183c-.759,4.412-1.35,8.063-1.308,8.1s1.645-2.086,3.629-4.693a41.8,41.8,0,0,1,3.671-4.653,57.786,57.786,0,0,1-2.4,5.656,48.312,48.312,0,0,0-2.532,6.218c0,.562,7.089,12.034,8.017,12.956a38.219,38.219,0,0,0-1.519-5.616c-1.013-3.249-1.857-6.217-1.857-6.579a62.981,62.981,0,0,1,4.008-7.421c2.194-3.731,4.008-6.9,4.008-7.02a50.234,50.234,0,0,0-3.08-4.212l-3.08-3.971.169-2.728a5.971,5.971,0,0,1,.506-2.688,19.41,19.41,0,0,1,2.658,1.6,13.8,13.8,0,0,0,2.4,1.4c0-.12-1.139-2.206-2.532-4.653l-2.532-4.493,1.561-2.367a7.625,7.625,0,0,1,1.857-2.246c.633.2,22.869,30.2,23.08,31.048.211,1.163-2.068,7.421-6.456,17.61-2.025,4.613-2.107,6.535.38,2.808,7.257-10.911,9.451-13.558,12.489-15.243.717-.4.633-.281-1.73,2.607-.844,1-3.08,4.332-5.021,7.421-1.9,3.089-4.051,6.5-4.726,7.581l-1.224,1.926,1.224-.842a5.38,5.38,0,0,1,1.646-.842c.211,0,.844.963,1.477,2.086L410.663-404l5.316-10.028c4.895-9.266,5.316-9.908,5.316-8.343a12.81,12.81,0,0,1-.97,4.212c-.549,1.4-1.139,2.888-1.308,3.329-.97,2.607,5.654-8.745,7.046-12.034a31.234,31.234,0,0,1,2.025-4.332c.169-.2,2.658,2.928,5.485,6.94,2.869,4.011,6.582,9.106,8.312,11.312,2.954,3.771,3.333,4.092,6.16,5.335,1.688.722,6.371,2.487,10.422,3.851l7.384,2.567-2.11.281c-3.882.481-12.7.842-14.219.562-1.055-.2-2.4-1.043-4.473-2.848-3.038-2.688-4.81-3.65-5.781-3.129a20.532,20.532,0,0,0-2.321,2.447c-2.827,3.41-4.473,3.61-10.042,1.083-4.177-1.885-5.781-1.845-9.114.12-3.924,2.367-6.16,3.049-9.072,2.768-3.5-.281-6.413-1.885-10.211-5.576a20.334,20.334,0,0,0-3.713-3.129c-.253,0-1.139.923-1.983,2.006-1.73,2.286-2.7,2.648-5.232,2.006-3.755-.963-5.612-.6-8.354,1.645-2.785,2.327-4.6,2.928-8.523,2.928a14.658,14.658,0,0,1-5.823-.883c-3-1.2-4.515-1.123-10.675.522-6.835,1.8-10.211,1.885-15.485.241a37.945,37.945,0,0,0-14.473-1.966c-5.105.241-6.624.6-16.625,3.971-4.768,1.6-5.4,1.725-10.548,1.845-5.865.2-9.409-.321-17.932-2.527a24.015,24.015,0,0,0-8.861-.842,70.849,70.849,0,0,0-10.338,1.284c-4.979,1-6.034,1.043-11.814.882a39.75,39.75,0,0,0-6.128,0s1.784.8,6.927,1.122c8.439.562,9.916.562,14.894.04,5.738-.642,6.076-.642,18.692.6,2.447.281,8.9.481,14.346.481a95.307,95.307,0,0,0,17.384-1.083c8.523-1.2,12.11-1.284,18.861-.441,5.063.642,6.329.562,11.435-.842,5.232-1.4,15.865-1.163,27.215.642,7.468,1.163,9.283,1.083,12.743-.6,4.979-2.447,7.215-2.567,23.333-1.244,8.65.722,39.916.642,45.274-.16,3.629-.521,6.709-.441,23.291.682,6.118.4,7.417.555,7.8-1.41.127-.562-.137-1.4-1.488-.635a16.048,16.048,0,0,1-4.722.455,41.752,41.752,0,0,1-4.2-.5c-4.515-.682-4.641-.722-15.063-5.937l-10.506-5.3-3-3.851c-1.646-2.126-5.949-7.9-9.536-12.916-3.586-4.974-6.667-9.066-6.878-9.106-.253,0-2.11,1.043-8.819,5.054l-1.561.923-15.1-20.214c-6.342-8.478-12-14.2-14.5-17.432C387.994-469.993,388.206-469.883,386.9-469.6Z" transform="translate(-238.37 469.808)" stroke="#08f8f1" stroke-width="1"/><text transform="translate(29.795 96.435)" fill="rgba(0,0,0,0)" stroke="#000" stroke-width="2.5" font-size="20" font-family="Stencil"><tspan x="0" y="0">SNOWBOARDS AREA</tspan></text><text transform="translate(29.795 96.437)" fill="#fff" stroke="#08f8f1" stroke-width="0.2" font-size="20" font-family="Stencil"><tspan x="0" y="0">SNOWBOARDS AREA</tspan></text></g></svg>