<svg xmlns="http://www.w3.org/2000/svg" width="40" height="40" viewBox="0 0 40 40"><path d="M43.556,45.95,28.944,31.339a12.242,12.242,0,0,1-3.889,2.25,13.749,13.749,0,0,1-4.722.806,13.833,13.833,0,0,1-10.167-4.167A13.7,13.7,0,0,1,6,20.172a13.7,13.7,0,0,1,4.167-10.056A13.767,13.767,0,0,1,20.278,5.95a13.611,13.611,0,0,1,10.028,4.167,13.749,13.749,0,0,1,4.139,10.056,13.858,13.858,0,0,1-.778,4.611,14.1,14.1,0,0,1-2.333,4.167L46,43.506ZM20.278,31.061a10.4,10.4,0,0,0,7.667-3.194,10.534,10.534,0,0,0,3.167-7.694,10.534,10.534,0,0,0-3.167-7.694,10.4,10.4,0,0,0-7.667-3.194,10.553,10.553,0,0,0-7.75,3.194,10.488,10.488,0,0,0-3.194,7.694,10.488,10.488,0,0,0,3.194,7.694,10.553,10.553,0,0,0,7.75,3.194Z" transform="translate(-6 -5.95)" fill="#08f8f1"/></svg>