<svg id="shopping_cart." xmlns="http://www.w3.org/2000/svg" width="39.336" height="39.95" viewBox="0 0 39.336 39.95">
  <path id="shopping_cart.-2" data-name="shopping_cart." d="M14.35,43.95a3.6,3.6,0,1,1,2.525-6.15,3.431,3.431,0,0,1,1.075,2.55,3.585,3.585,0,0,1-3.6,3.6Zm20,0a3.6,3.6,0,1,1,2.525-6.15,3.431,3.431,0,0,1,1.075,2.55,3.585,3.585,0,0,1-3.6,3.6Zm-22.6-33,5.5,11.4h14.4l6.25-11.4Zm-1.5-3H39.7q1.6,0,2.025.975A2.331,2.331,0,0,1,41.45,11.1L34.7,23.25a4.7,4.7,0,0,1-1.4,1.475,3.351,3.351,0,0,1-1.95.625H16.2l-2.8,5.2H37.95v3H13.85a3.356,3.356,0,0,1-3.025-1.4A2.877,2.877,0,0,1,10.85,29l3.2-5.9L6.45,7H2.55V4H8.4Zm7,14.4h0Z" transform="translate(-2.55 -4)" fill="#08f8f1"/>
</svg>
